<svg width="19" height="20" viewBox="0 0 19 20" fill="none" xmlns="http://www.w3.org/2000/svg">
<path d="M6.83333 7.50008H6.84167M11.8333 12.5001H11.8417M12.6667 6.66675L6 13.3334M14.251 4.1655C14.4226 4.58053 14.752 4.91041 15.1667 5.08264L16.621 5.68506C17.0361 5.85698 17.3658 6.18674 17.5377 6.6018C17.7096 7.01685 17.7096 7.4832 17.5377 7.89826L16.9358 9.35158C16.7638 9.76682 16.7635 10.2336 16.9363 10.6487L17.5372 12.1016C17.6225 12.3071 17.6663 12.5275 17.6664 12.75C17.6664 12.9726 17.6226 13.1929 17.5374 13.3985C17.4523 13.6041 17.3274 13.7909 17.1701 13.9483C17.0127 14.1056 16.8259 14.2304 16.6202 14.3155L15.167 14.9175C14.752 15.0891 14.4221 15.4185 14.2499 15.8332L13.6475 17.2876C13.4755 17.7027 13.1458 18.0324 12.7308 18.2043C12.3157 18.3763 11.8494 18.3763 11.4343 18.2043L9.98107 17.6023C9.56602 17.4308 9.09986 17.4312 8.68506 17.6033L7.23074 18.2049C6.81594 18.3764 6.35001 18.3763 5.93531 18.2045C5.52061 18.0327 5.19104 17.7033 5.01901 17.2887L4.41643 15.8339C4.24483 15.4189 3.91545 15.089 3.50071 14.9168L2.04639 14.3143C1.63153 14.1425 1.30188 13.813 1.1299 13.3981C0.957924 12.9833 0.95769 12.5172 1.12925 12.1022L1.73122 10.6489C1.90271 10.2338 1.90236 9.76762 1.73025 9.35282L1.12914 7.8974C1.04392 7.69183 1.00004 7.47148 1 7.24894C0.999964 7.0264 1.04378 6.80604 1.12894 6.60044C1.21409 6.39484 1.33893 6.20804 1.49631 6.05071C1.65368 5.89338 1.84052 5.7686 2.04614 5.6835L3.49941 5.08151C3.91406 4.91006 4.24374 4.58108 4.41609 4.1668L5.01849 2.71242C5.1904 2.29737 5.52015 1.96761 5.93519 1.79569C6.35022 1.62377 6.81656 1.62377 7.2316 1.79569L8.68487 2.39768C9.09992 2.56918 9.56609 2.56882 9.98088 2.3967L11.4358 1.79662C11.8508 1.6248 12.317 1.62483 12.732 1.79672C13.1469 1.96861 13.4766 2.29827 13.6486 2.71322L14.2512 4.16802L14.251 4.1655ZM7.25 7.50008C7.25 7.7302 7.06345 7.91675 6.83333 7.91675C6.60322 7.91675 6.41667 7.7302 6.41667 7.50008C6.41667 7.26996 6.60322 7.08341 6.83333 7.08341C7.06345 7.08341 7.25 7.26996 7.25 7.50008ZM12.25 12.5001C12.25 12.7302 12.0635 12.9167 11.8333 12.9167C11.6032 12.9167 11.4167 12.7302 11.4167 12.5001C11.4167 12.27 11.6032 12.0834 11.8333 12.0834C12.0635 12.0834 12.25 12.27 12.25 12.5001Z" stroke="#344054" stroke-width="1.67" stroke-linecap="round" stroke-linejoin="round"/>
</svg>
