<svg width="20" height="20" viewBox="0 0 20 20" fill="none" xmlns="http://www.w3.org/2000/svg">
<path d="M7.49984 7.50008H7.50817M12.4998 12.5001H12.5082M13.3332 6.66675L6.6665 13.3334M14.9175 4.1655C15.0891 4.58053 15.4185 4.91041 15.8332 5.08264L17.2875 5.68506C17.7026 5.85698 18.0323 6.18674 18.2042 6.6018C18.3762 7.01685 18.3762 7.4832 18.2042 7.89826L17.6023 9.35158C17.4303 9.76682 17.43 10.2336 17.6028 10.6487L18.2037 12.1016C18.289 12.3071 18.3328 12.5275 18.3329 12.75C18.3329 12.9726 18.2891 13.1929 18.2039 13.3985C18.1188 13.6041 17.994 13.7909 17.8366 13.9483C17.6792 14.1056 17.4924 14.2304 17.2867 14.3155L15.8335 14.9175C15.4185 15.0891 15.0886 15.4185 14.9164 15.8332L14.314 17.2876C14.142 17.7027 13.8123 18.0324 13.3973 18.2043C12.9822 18.3763 12.5159 18.3763 12.1008 18.2043L10.6476 17.6023C10.2325 17.4308 9.76636 17.4312 9.35157 17.6033L7.89725 18.2049C7.48244 18.3764 7.01651 18.3763 6.60181 18.2045C6.18711 18.0327 5.85755 17.7033 5.68551 17.2887L5.08294 15.8339C4.91134 15.4189 4.58196 15.089 4.16721 14.9168L2.71289 14.3143C2.29803 14.1425 1.96838 13.813 1.79641 13.3981C1.62443 12.9833 1.62419 12.5172 1.79576 12.1022L2.39772 10.6489C2.56922 10.2338 2.56887 9.76762 2.39675 9.35282L1.79565 7.8974C1.71042 7.69183 1.66654 7.47148 1.6665 7.24894C1.66647 7.0264 1.71028 6.80604 1.79544 6.60044C1.8806 6.39484 2.00543 6.20804 2.16281 6.05071C2.32019 5.89338 2.50702 5.7686 2.71264 5.6835L4.16592 5.08151C4.58056 4.91006 4.91024 4.58108 5.08259 4.1668L5.68499 2.71242C5.8569 2.29737 6.18665 1.96761 6.60169 1.79569C7.01673 1.62377 7.48306 1.62377 7.8981 1.79569L9.35138 2.39768C9.76643 2.56918 10.2326 2.56882 10.6474 2.3967L12.1023 1.79662C12.5173 1.6248 12.9835 1.62483 13.3985 1.79672C13.8134 1.96861 14.1431 2.29827 14.3151 2.71322L14.9177 4.16802L14.9175 4.1655ZM7.9165 7.50008C7.9165 7.7302 7.72996 7.91675 7.49984 7.91675C7.26972 7.91675 7.08317 7.7302 7.08317 7.50008C7.08317 7.26996 7.26972 7.08341 7.49984 7.08341C7.72996 7.08341 7.9165 7.26996 7.9165 7.50008ZM12.9165 12.5001C12.9165 12.7302 12.73 12.9167 12.4998 12.9167C12.2697 12.9167 12.0832 12.7302 12.0832 12.5001C12.0832 12.27 12.2697 12.0834 12.4998 12.0834C12.73 12.0834 12.9165 12.27 12.9165 12.5001Z" stroke="#344054" stroke-width="1.67" stroke-linecap="round" stroke-linejoin="round"/>
</svg>
