<svg width="20" height="20" viewBox="0 0 20 20" fill="none" xmlns="http://www.w3.org/2000/svg">
<path d="M7.49984 7.49996H7.50817M12.4998 12.5H12.5082M13.3332 6.66663L6.6665 13.3333M14.9175 4.16538C15.0891 4.5804 15.4185 4.91029 15.8332 5.08252L17.2875 5.68494C17.7026 5.85686 18.0323 6.18662 18.2042 6.60168C18.3762 7.01673 18.3762 7.48308 18.2042 7.89813L17.6023 9.35146C17.4303 9.7667 17.43 10.2335 17.6028 10.6486L18.2037 12.1015C18.289 12.307 18.3328 12.5274 18.3329 12.7499C18.3329 12.9725 18.2891 13.1928 18.2039 13.3984C18.1188 13.604 17.994 13.7908 17.8366 13.9482C17.6792 14.1055 17.4924 14.2303 17.2867 14.3154L15.8335 14.9173C15.4185 15.089 15.0886 15.4183 14.9164 15.8331L14.314 17.2875C14.142 17.7025 13.8123 18.0323 13.3973 18.2042C12.9822 18.3761 12.5159 18.3761 12.1008 18.2042L10.6476 17.6022C10.2325 17.4307 9.76636 17.4311 9.35157 17.6032L7.89725 18.2048C7.48244 18.3763 7.01651 18.3761 6.60181 18.2044C6.18711 18.0326 5.85755 17.7032 5.68551 17.2886L5.08294 15.8338C4.91134 15.4188 4.58196 15.0889 4.16721 14.9166L2.71289 14.3142C2.29803 14.1424 1.96838 13.8128 1.79641 13.398C1.62443 12.9832 1.62419 12.5171 1.79576 12.1021L2.39772 10.6488C2.56922 10.2337 2.56887 9.7675 2.39675 9.3527L1.79565 7.89728C1.71042 7.69171 1.66654 7.47136 1.6665 7.24882C1.66647 7.02628 1.71028 6.80592 1.79544 6.60032C1.8806 6.39472 2.00543 6.20792 2.16281 6.05059C2.32019 5.89325 2.50702 5.76847 2.71264 5.68338L4.16592 5.08139C4.58056 4.90994 4.91024 4.58096 5.08259 4.16667L5.68499 2.7123C5.8569 2.29725 6.18665 1.96749 6.60169 1.79557C7.01673 1.62365 7.48306 1.62365 7.8981 1.79557L9.35138 2.39756C9.76643 2.56905 10.2326 2.5687 10.6474 2.39658L12.1023 1.7965C12.5173 1.62468 12.9835 1.62471 13.3985 1.7966C13.8134 1.96849 14.1431 2.29815 14.3151 2.7131L14.9177 4.1679L14.9175 4.16538ZM7.9165 7.49996C7.9165 7.73008 7.72996 7.91663 7.49984 7.91663C7.26972 7.91663 7.08317 7.73008 7.08317 7.49996C7.08317 7.26984 7.26972 7.08329 7.49984 7.08329C7.72996 7.08329 7.9165 7.26984 7.9165 7.49996ZM12.9165 12.5C12.9165 12.7301 12.73 12.9166 12.4998 12.9166C12.2697 12.9166 12.0832 12.7301 12.0832 12.5C12.0832 12.2698 12.2697 12.0833 12.4998 12.0833C12.73 12.0833 12.9165 12.2698 12.9165 12.5Z" stroke="#344054" stroke-width="1.67" stroke-linecap="round" stroke-linejoin="round"/>
</svg>
