<svg width="14" height="12" viewBox="0 0 14 12" fill="none" xmlns="http://www.w3.org/2000/svg">
<path d="M13 5.66667L5 5.66667M13 1.66667L5 1.66667M13 9.66667L5 9.66667M2.33333 5.66667C2.33333 6.03486 2.03486 6.33333 1.66667 6.33333C1.29848 6.33333 1 6.03486 1 5.66667C1 5.29848 1.29848 5 1.66667 5C2.03486 5 2.33333 5.29848 2.33333 5.66667ZM2.33333 1.66667C2.33333 2.03486 2.03486 2.33333 1.66667 2.33333C1.29848 2.33333 1 2.03486 1 1.66667C1 1.29848 1.29848 1 1.66667 1C2.03486 1 2.33333 1.29848 2.33333 1.66667ZM2.33333 9.66667C2.33333 10.0349 2.03486 10.3333 1.66667 10.3333C1.29848 10.3333 1 10.0349 1 9.66667C1 9.29848 1.29848 9 1.66667 9C2.03486 9 2.33333 9.29848 2.33333 9.66667Z" stroke="#98A2B3" stroke-width="1.47" stroke-linecap="round" stroke-linejoin="round"/>
</svg>
