<svg width="19" height="20" viewBox="0 0 19 20" fill="none" xmlns="http://www.w3.org/2000/svg">
<path d="M6.83333 7.49996H6.84167M11.8333 12.5H11.8417M12.6667 6.66663L6 13.3333M14.251 4.16538C14.4226 4.5804 14.752 4.91029 15.1667 5.08252L16.621 5.68494C17.0361 5.85686 17.3658 6.18662 17.5377 6.60168C17.7096 7.01673 17.7096 7.48308 17.5377 7.89813L16.9358 9.35146C16.7638 9.7667 16.7635 10.2335 16.9363 10.6486L17.5372 12.1015C17.6225 12.307 17.6663 12.5274 17.6664 12.7499C17.6664 12.9725 17.6226 13.1928 17.5374 13.3984C17.4523 13.604 17.3274 13.7908 17.1701 13.9482C17.0127 14.1055 16.8259 14.2303 16.6202 14.3154L15.167 14.9173C14.752 15.089 14.4221 15.4183 14.2499 15.8331L13.6475 17.2875C13.4755 17.7025 13.1458 18.0323 12.7308 18.2042C12.3157 18.3761 11.8494 18.3761 11.4343 18.2042L9.98107 17.6022C9.56602 17.4307 9.09986 17.4311 8.68506 17.6032L7.23074 18.2048C6.81594 18.3763 6.35001 18.3761 5.93531 18.2044C5.52061 18.0326 5.19104 17.7032 5.01901 17.2886L4.41643 15.8338C4.24483 15.4188 3.91545 15.0889 3.50071 14.9166L2.04639 14.3142C1.63153 14.1424 1.30188 13.8128 1.1299 13.398C0.957924 12.9832 0.95769 12.5171 1.12925 12.1021L1.73122 10.6488C1.90271 10.2337 1.90236 9.7675 1.73025 9.3527L1.12914 7.89728C1.04392 7.69171 1.00004 7.47136 1 7.24882C0.999964 7.02628 1.04378 6.80592 1.12894 6.60032C1.21409 6.39472 1.33893 6.20792 1.49631 6.05059C1.65368 5.89325 1.84052 5.76847 2.04614 5.68338L3.49941 5.08139C3.91406 4.90994 4.24374 4.58096 4.41609 4.16667L5.01849 2.7123C5.1904 2.29725 5.52015 1.96749 5.93519 1.79557C6.35022 1.62365 6.81656 1.62365 7.2316 1.79557L8.68487 2.39756C9.09992 2.56905 9.56609 2.5687 9.98088 2.39658L11.4358 1.7965C11.8508 1.62468 12.317 1.62471 12.732 1.7966C13.1469 1.96849 13.4766 2.29815 13.6486 2.7131L14.2512 4.1679L14.251 4.16538ZM7.25 7.49996C7.25 7.73008 7.06345 7.91663 6.83333 7.91663C6.60322 7.91663 6.41667 7.73008 6.41667 7.49996C6.41667 7.26984 6.60322 7.08329 6.83333 7.08329C7.06345 7.08329 7.25 7.26984 7.25 7.49996ZM12.25 12.5C12.25 12.7301 12.0635 12.9166 11.8333 12.9166C11.6032 12.9166 11.4167 12.7301 11.4167 12.5C11.4167 12.2698 11.6032 12.0833 11.8333 12.0833C12.0635 12.0833 12.25 12.2698 12.25 12.5Z" stroke="#344054" stroke-width="1.67" stroke-linecap="round" stroke-linejoin="round"/>
</svg>
