<svg width="19" height="20" viewBox="0 0 19 20" fill="none" xmlns="http://www.w3.org/2000/svg">
<path d="M6.83333 7.50002H6.84167M11.8333 12.5H11.8417M12.6667 6.66669L6 13.3334M14.251 4.16544C14.4226 4.58046 14.752 4.91035 15.1667 5.08258L16.621 5.685C17.0361 5.85692 17.3658 6.18668 17.5377 6.60174C17.7096 7.01679 17.7096 7.48314 17.5377 7.89819L16.9358 9.35152C16.7638 9.76676 16.7635 10.2336 16.9363 10.6486L17.5372 12.1015C17.6225 12.3071 17.6663 12.5274 17.6664 12.75C17.6664 12.9725 17.6226 13.1929 17.5374 13.3985C17.4523 13.6041 17.3274 13.7909 17.1701 13.9482C17.0127 14.1055 16.8259 14.2303 16.6202 14.3154L15.167 14.9174C14.752 15.089 14.4221 15.4184 14.2499 15.8332L13.6475 17.2875C13.4755 17.7026 13.1458 18.0324 12.7308 18.2043C12.3157 18.3762 11.8494 18.3762 11.4343 18.2043L9.98107 17.6023C9.56602 17.4308 9.09986 17.4311 8.68506 17.6033L7.23074 18.2048C6.81594 18.3763 6.35001 18.3762 5.93531 18.2044C5.52061 18.0326 5.19104 17.7033 5.01901 17.2887L4.41643 15.8338C4.24483 15.4188 3.91545 15.0889 3.50071 14.9167L2.04639 14.3143C1.63153 14.1424 1.30188 13.8129 1.1299 13.3981C0.957924 12.9833 0.95769 12.5171 1.12925 12.1021L1.73122 10.6488C1.90271 10.2337 1.90236 9.76756 1.73025 9.35276L1.12914 7.89734C1.04392 7.69177 1.00004 7.47142 1 7.24888C0.999964 7.02634 1.04378 6.80598 1.12894 6.60038C1.21409 6.39478 1.33893 6.20798 1.49631 6.05065C1.65368 5.89331 1.84052 5.76854 2.04614 5.68344L3.49941 5.08145C3.91406 4.91 4.24374 4.58102 4.41609 4.16673L5.01849 2.71236C5.1904 2.29731 5.52015 1.96755 5.93519 1.79563C6.35022 1.62371 6.81656 1.62371 7.2316 1.79563L8.68487 2.39762C9.09992 2.56911 9.56609 2.56876 9.98088 2.39664L11.4358 1.79656C11.8508 1.62474 12.317 1.62477 12.732 1.79666C13.1469 1.96855 13.4766 2.29821 13.6486 2.71316L14.2512 4.16796L14.251 4.16544ZM7.25 7.50002C7.25 7.73014 7.06345 7.91669 6.83333 7.91669C6.60322 7.91669 6.41667 7.73014 6.41667 7.50002C6.41667 7.2699 6.60322 7.08335 6.83333 7.08335C7.06345 7.08335 7.25 7.2699 7.25 7.50002ZM12.25 12.5C12.25 12.7301 12.0635 12.9167 11.8333 12.9167C11.6032 12.9167 11.4167 12.7301 11.4167 12.5C11.4167 12.2699 11.6032 12.0834 11.8333 12.0834C12.0635 12.0834 12.25 12.2699 12.25 12.5Z" stroke="#344054" stroke-width="1.67" stroke-linecap="round" stroke-linejoin="round"/>
</svg>
