<svg width="20" height="20" viewBox="0 0 20 20" fill="none" xmlns="http://www.w3.org/2000/svg">
<path d="M7.49984 7.50002H7.50817M12.4998 12.5H12.5082M13.3332 6.66669L6.6665 13.3334M14.9175 4.16544C15.0891 4.58046 15.4185 4.91035 15.8332 5.08258L17.2875 5.685C17.7026 5.85692 18.0323 6.18668 18.2042 6.60174C18.3762 7.01679 18.3762 7.48314 18.2042 7.89819L17.6023 9.35152C17.4303 9.76676 17.43 10.2336 17.6028 10.6486L18.2037 12.1015C18.289 12.3071 18.3328 12.5274 18.3329 12.75C18.3329 12.9725 18.2891 13.1929 18.2039 13.3985C18.1188 13.6041 17.994 13.7909 17.8366 13.9482C17.6792 14.1055 17.4924 14.2303 17.2867 14.3154L15.8335 14.9174C15.4185 15.089 15.0886 15.4184 14.9164 15.8332L14.314 17.2875C14.142 17.7026 13.8123 18.0324 13.3973 18.2043C12.9822 18.3762 12.5159 18.3762 12.1008 18.2043L10.6476 17.6023C10.2325 17.4308 9.76636 17.4311 9.35157 17.6033L7.89725 18.2048C7.48244 18.3763 7.01651 18.3762 6.60181 18.2044C6.18711 18.0326 5.85755 17.7033 5.68551 17.2887L5.08294 15.8338C4.91134 15.4188 4.58196 15.0889 4.16721 14.9167L2.71289 14.3143C2.29803 14.1424 1.96838 13.8129 1.79641 13.3981C1.62443 12.9833 1.62419 12.5171 1.79576 12.1021L2.39772 10.6488C2.56922 10.2337 2.56887 9.76756 2.39675 9.35276L1.79565 7.89734C1.71042 7.69177 1.66654 7.47142 1.6665 7.24888C1.66647 7.02634 1.71028 6.80598 1.79544 6.60038C1.8806 6.39478 2.00543 6.20798 2.16281 6.05065C2.32019 5.89331 2.50702 5.76854 2.71264 5.68344L4.16592 5.08145C4.58056 4.91 4.91024 4.58102 5.08259 4.16673L5.68499 2.71236C5.8569 2.29731 6.18665 1.96755 6.60169 1.79563C7.01673 1.62371 7.48306 1.62371 7.8981 1.79563L9.35138 2.39762C9.76643 2.56911 10.2326 2.56876 10.6474 2.39664L12.1023 1.79656C12.5173 1.62474 12.9835 1.62477 13.3985 1.79666C13.8134 1.96855 14.1431 2.29821 14.3151 2.71316L14.9177 4.16796L14.9175 4.16544ZM7.9165 7.50002C7.9165 7.73014 7.72996 7.91669 7.49984 7.91669C7.26972 7.91669 7.08317 7.73014 7.08317 7.50002C7.08317 7.2699 7.26972 7.08335 7.49984 7.08335C7.72996 7.08335 7.9165 7.2699 7.9165 7.50002ZM12.9165 12.5C12.9165 12.7301 12.73 12.9167 12.4998 12.9167C12.2697 12.9167 12.0832 12.7301 12.0832 12.5C12.0832 12.2699 12.2697 12.0834 12.4998 12.0834C12.73 12.0834 12.9165 12.2699 12.9165 12.5Z" stroke="#344054" stroke-width="1.67" stroke-linecap="round" stroke-linejoin="round"/>
</svg>
