<svg width="25" height="24" viewBox="0 0 25 24" fill="none" xmlns="http://www.w3.org/2000/svg">
<path d="M12.6665 22C16.5325 22 19.6665 18.866 19.6665 15C19.6665 11.134 16.5325 8 12.6665 8C8.80051 8 5.6665 11.134 5.6665 15C5.6665 18.866 8.80051 22 12.6665 22Z" fill="white"/>
<path d="M7.76752 10H7.6665V8C7.6665 5.23858 9.90508 3 12.6665 3C15.4279 3 17.6665 5.23858 17.6665 8V10H17.5655M12.6665 14V16M19.6665 15C19.6665 18.866 16.5325 22 12.6665 22C8.80051 22 5.6665 18.866 5.6665 15C5.6665 11.134 8.80051 8 12.6665 8C16.5325 8 19.6665 11.134 19.6665 15Z" stroke="#D92D20" stroke-width="2" stroke-linecap="round" stroke-linejoin="round"/>
</svg>
