<svg width="28" height="28" viewBox="0 0 28 28" fill="none" xmlns="http://www.w3.org/2000/svg">
<path d="M2.33331 8.16666L11.8591 14.8347C12.6304 15.3746 13.0161 15.6446 13.4356 15.7492C13.8062 15.8416 14.1938 15.8416 14.5643 15.7492C14.9839 15.6446 15.3695 15.3746 16.1409 14.8347L25.6666 8.16666M7.93331 23.3333H20.0666C22.0268 23.3333 23.0069 23.3333 23.7556 22.9519C24.4142 22.6163 24.9496 22.0809 25.2852 21.4223C25.6666 20.6736 25.6666 19.6935 25.6666 17.7333V10.2667C25.6666 8.30648 25.6666 7.32639 25.2852 6.5777C24.9496 5.91913 24.4142 5.3837 23.7556 5.04814C23.0069 4.66666 22.0268 4.66666 20.0666 4.66666H7.93331C5.97313 4.66666 4.99304 4.66666 4.24435 5.04814C3.58578 5.3837 3.05035 5.91913 2.71479 6.5777C2.33331 7.32639 2.33331 8.30648 2.33331 10.2667V17.7333C2.33331 19.6935 2.33331 20.6736 2.71479 21.4223C3.05035 22.0809 3.58578 22.6163 4.24435 22.9519C4.99304 23.3333 5.97313 23.3333 7.93331 23.3333Z" stroke="#344054" stroke-width="2" stroke-linecap="round" stroke-linejoin="round"/>
</svg>
