<svg width="40" height="35" viewBox="0 0 40 35" fill="none" xmlns="http://www.w3.org/2000/svg">
<path d="M0 6C0 2.68629 2.68629 0 6 0H34C37.3137 0 40 2.68629 40 6V29C40 32.3137 37.3137 35 34 35H6C2.68629 35 0 32.3137 0 29V6Z" fill="white"/>
<path d="M14.3693 16.7674C14.3105 16.3868 14.2801 15.997 14.2801 15.6C14.2801 11.4026 17.6872 8 21.89 8C26.0929 8 29.5 11.4026 29.5 15.6C29.5 16.5482 29.3261 17.4558 29.0085 18.2928C28.9426 18.4666 28.9096 18.5535 28.8946 18.6214C28.8798 18.6886 28.874 18.7359 28.8724 18.8048C28.8708 18.8743 28.8802 18.9508 28.8989 19.1039L29.2794 22.2106C29.3205 22.5469 29.3411 22.7151 29.2855 22.8373C29.2367 22.9444 29.1501 23.0295 29.0425 23.076C28.9196 23.1291 28.7529 23.1046 28.4194 23.0554L25.4092 22.6119C25.252 22.5887 25.1734 22.5771 25.1019 22.5775C25.031 22.5779 24.9821 22.5832 24.9128 22.5978C24.8427 22.6126 24.7532 22.6463 24.5743 22.7137C23.7395 23.028 22.8349 23.2 21.89 23.2C21.4948 23.2 21.1067 23.1699 20.7277 23.1119M15.822 27C18.6239 27 20.8953 24.6607 20.8953 21.775C20.8953 18.8893 18.6239 16.55 15.822 16.55C13.0201 16.55 10.7487 18.8893 10.7487 21.775C10.7487 22.3551 10.8405 22.913 11.0099 23.4344C11.0815 23.6548 11.1173 23.765 11.1291 23.8402C11.1413 23.9188 11.1435 23.963 11.1389 24.0424C11.1345 24.1185 11.1156 24.2044 11.0777 24.3764L10.5 27L13.3302 26.6114C13.4846 26.5902 13.5619 26.5796 13.6293 26.5801C13.7004 26.5806 13.738 26.5844 13.8077 26.5984C13.8738 26.6117 13.9722 26.6466 14.1689 26.7163C14.687 26.9002 15.2432 27 15.822 27Z" stroke="#667085" stroke-width="2" stroke-linecap="round" stroke-linejoin="round"/>
</svg>
