<svg width="121" height="72" viewBox="0 0 121 72" fill="none" xmlns="http://www.w3.org/2000/svg">
<mask id="path-1-inside-1_285_29889" fill="white">
<path d="M0 0H121V72H0V0Z"/>
</mask>
<path d="M121 71H0V73H121V71Z" fill="#EAECF0" mask="url(#path-1-inside-1_285_29889)"/>
<path d="M60.4998 36.8335C60.9601 36.8335 61.3332 36.4604 61.3332 36.0002C61.3332 35.5399 60.9601 35.1668 60.4998 35.1668C60.0396 35.1668 59.6665 35.5399 59.6665 36.0002C59.6665 36.4604 60.0396 36.8335 60.4998 36.8335Z" stroke="#98A2B3" stroke-width="1.66667" stroke-linecap="round" stroke-linejoin="round"/>
<path d="M60.4998 31.0002C60.9601 31.0002 61.3332 30.6271 61.3332 30.1668C61.3332 29.7066 60.9601 29.3335 60.4998 29.3335C60.0396 29.3335 59.6665 29.7066 59.6665 30.1668C59.6665 30.6271 60.0396 31.0002 60.4998 31.0002Z" stroke="#98A2B3" stroke-width="1.66667" stroke-linecap="round" stroke-linejoin="round"/>
<path d="M60.4998 42.6668C60.9601 42.6668 61.3332 42.2937 61.3332 41.8335C61.3332 41.3733 60.9601 41.0002 60.4998 41.0002C60.0396 41.0002 59.6665 41.3733 59.6665 41.8335C59.6665 42.2937 60.0396 42.6668 60.4998 42.6668Z" stroke="#98A2B3" stroke-width="1.66667" stroke-linecap="round" stroke-linejoin="round"/>
</svg>
