<svg width="120" height="72" viewBox="0 0 120 72" fill="none" xmlns="http://www.w3.org/2000/svg">
<mask id="path-1-inside-1_510_7849" fill="white">
<path d="M0 0H120V72H0V0Z"/>
</mask>
<path d="M120 71H0V73H120V71Z" fill="#EAECF0" mask="url(#path-1-inside-1_510_7849)"/>
<path d="M59.9998 36.8333C60.4601 36.8333 60.8332 36.4602 60.8332 35.9999C60.8332 35.5397 60.4601 35.1666 59.9998 35.1666C59.5396 35.1666 59.1665 35.5397 59.1665 35.9999C59.1665 36.4602 59.5396 36.8333 59.9998 36.8333Z" stroke="#98A2B3" stroke-width="1.66667" stroke-linecap="round" stroke-linejoin="round"/>
<path d="M59.9998 30.9999C60.4601 30.9999 60.8332 30.6268 60.8332 30.1666C60.8332 29.7063 60.4601 29.3333 59.9998 29.3333C59.5396 29.3333 59.1665 29.7063 59.1665 30.1666C59.1665 30.6268 59.5396 30.9999 59.9998 30.9999Z" stroke="#98A2B3" stroke-width="1.66667" stroke-linecap="round" stroke-linejoin="round"/>
<path d="M59.9998 42.6666C60.4601 42.6666 60.8332 42.2935 60.8332 41.8333C60.8332 41.373 60.4601 40.9999 59.9998 40.9999C59.5396 40.9999 59.1665 41.373 59.1665 41.8333C59.1665 42.2935 59.5396 42.6666 59.9998 42.6666Z" stroke="#98A2B3" stroke-width="1.66667" stroke-linecap="round" stroke-linejoin="round"/>
</svg>
