<svg width="121" height="72" viewBox="0 0 121 72" fill="none" xmlns="http://www.w3.org/2000/svg">
<mask id="path-1-inside-1_285_29885" fill="white">
<path d="M0 0H121V72H0V0Z"/>
</mask>
<path d="M121 71H0V73H121V71Z" fill="#EAECF0" mask="url(#path-1-inside-1_285_29885)"/>
<path d="M60.4998 36.8333C60.9601 36.8333 61.3332 36.4602 61.3332 35.9999C61.3332 35.5397 60.9601 35.1666 60.4998 35.1666C60.0396 35.1666 59.6665 35.5397 59.6665 35.9999C59.6665 36.4602 60.0396 36.8333 60.4998 36.8333Z" stroke="#98A2B3" stroke-width="1.66667" stroke-linecap="round" stroke-linejoin="round"/>
<path d="M60.4998 30.9999C60.9601 30.9999 61.3332 30.6268 61.3332 30.1666C61.3332 29.7063 60.9601 29.3333 60.4998 29.3333C60.0396 29.3333 59.6665 29.7063 59.6665 30.1666C59.6665 30.6268 60.0396 30.9999 60.4998 30.9999Z" stroke="#98A2B3" stroke-width="1.66667" stroke-linecap="round" stroke-linejoin="round"/>
<path d="M60.4998 42.6666C60.9601 42.6666 61.3332 42.2935 61.3332 41.8333C61.3332 41.373 60.9601 40.9999 60.4998 40.9999C60.0396 40.9999 59.6665 41.373 59.6665 41.8333C59.6665 42.2935 60.0396 42.6666 60.4998 42.6666Z" stroke="#98A2B3" stroke-width="1.66667" stroke-linecap="round" stroke-linejoin="round"/>
</svg>
