<svg width="120" height="72" viewBox="0 0 120 72" fill="none" xmlns="http://www.w3.org/2000/svg">
<mask id="path-1-inside-1_285_29887" fill="white">
<path d="M0 0H120V72H0V0Z"/>
</mask>
<path d="M120 71H0V73H120V71Z" fill="#EAECF0" mask="url(#path-1-inside-1_285_29887)"/>
<path d="M59.9998 36.8335C60.4601 36.8335 60.8332 36.4604 60.8332 36.0002C60.8332 35.5399 60.4601 35.1668 59.9998 35.1668C59.5396 35.1668 59.1665 35.5399 59.1665 36.0002C59.1665 36.4604 59.5396 36.8335 59.9998 36.8335Z" stroke="#98A2B3" stroke-width="1.66667" stroke-linecap="round" stroke-linejoin="round"/>
<path d="M59.9998 31.0002C60.4601 31.0002 60.8332 30.6271 60.8332 30.1668C60.8332 29.7066 60.4601 29.3335 59.9998 29.3335C59.5396 29.3335 59.1665 29.7066 59.1665 30.1668C59.1665 30.6271 59.5396 31.0002 59.9998 31.0002Z" stroke="#98A2B3" stroke-width="1.66667" stroke-linecap="round" stroke-linejoin="round"/>
<path d="M59.9998 42.6668C60.4601 42.6668 60.8332 42.2937 60.8332 41.8335C60.8332 41.3733 60.4601 41.0002 59.9998 41.0002C59.5396 41.0002 59.1665 41.3733 59.1665 41.8335C59.1665 42.2937 59.5396 42.6668 59.9998 42.6668Z" stroke="#98A2B3" stroke-width="1.66667" stroke-linecap="round" stroke-linejoin="round"/>
</svg>
